<?xml version="1.0" encoding="UTF-8" standalone="no"?>
<svg
   width="980"
   height="260"
   viewBox="0 0 980 260"
   version="1.1"
   id="svg22"
   xmlns="http://www.w3.org/2000/svg"
   xmlns:svg="http://www.w3.org/2000/svg">
  <defs
     id="defs9">
    <linearGradient
       id="brandGradient"
       x1="0"
       y1="0"
       x2="1"
       y2="1">
      <stop
         offset="0"
         stop-color="#73DEFF"
         id="stop1" />
      <stop
         offset="0.48"
         stop-color="#25BDF4"
         id="stop2" />
      <stop
         offset="1"
         stop-color="#1B6DB0"
         id="stop3" />
    </linearGradient>
    <linearGradient
       id="wordGradient"
       x1="0"
       y1="0"
       x2="1"
       y2="0">
      <stop
         offset="0"
         stop-color="#25BDF4"
         id="stop4" />
      <stop
         offset="0.45"
         stop-color="#73DEFF"
         id="stop5" />
      <stop
         offset="1"
         stop-color="#BDD3F3"
         id="stop6" />
    </linearGradient>
    <radialGradient
       id="sphereGradient"
       cx="35%"
       cy="30%"
       r="75%">
      <stop
         offset="0"
         stop-color="#73DEFF"
         id="stop7" />
      <stop
         offset="0.45"
         stop-color="#1B6DB0"
         id="stop8" />
      <stop
         offset="1"
         stop-color="#071329"
         id="stop9" />
    </radialGradient>
  </defs>
  <g
     transform="translate(18,2) scale(0.98)"
     id="g21">
    <g
       fill="none"
       stroke-linecap="round"
       stroke-linejoin="round"
       id="g15">
      <circle
         cx="128"
         cy="128"
         r="91"
         stroke="#102650"
         stroke-width="13"
         id="circle9" />
      <path
         d="M53 188 C83 102 132 48 204 53"
         stroke="#102650"
         stroke-width="12"
         id="path9" />
      <path
         d="M52 58 C105 99 157 157 205 201"
         stroke="#102650"
         stroke-width="12"
         id="path10" />
      <path
         d="M45 136 C86 92 161 82 213 116"
         stroke="#102650"
         stroke-width="10"
         id="path11" />
      <path
         d="M63 174 C108 213 171 207 208 155"
         stroke="#102650"
         stroke-width="10"
         id="path12" />
      <path
         d="M76 40 C45 91 45 164 86 209"
         stroke="#102650"
         stroke-width="9"
         id="path13" />
      <path
         d="M198 49 C176 76 164 98 158 127"
         stroke="#25BDF4"
         stroke-width="13"
         id="path14" />
      <path
         d="M157 127 C181 97 198 76 204 53"
         stroke="#25BDF4"
         stroke-width="13"
         id="path15" />
    </g>
    <g
       id="g20">
      <circle
         cx="52"
         cy="58"
         r="13"
         fill="#17396F"
         id="circle15" />
      <circle
         cx="204"
         cy="53"
         r="13"
         fill="#25BDF4"
         id="circle16" />
      <circle
         cx="53"
         cy="188"
         r="13"
         fill="#17396F"
         id="circle17" />
      <circle
         cx="205"
         cy="201"
         r="13"
         fill="#17396F"
         id="circle18" />
      <circle
         cx="109"
         cy="104"
         r="11"
         fill="#6D88A8"
         id="circle19" />
      <circle
         cx="158"
         cy="127"
         r="11"
         fill="#6D88A8"
         id="circle20" />
    </g>
  </g>
  <path
     d="m 339.16504,176.34766 c 23.9209,0 41.1709,-15.90235 41.1709,-40.83399 v -10.9834 h -38.54297 v 11.18555 h 26.00976 c -0.33691,17.6543 -11.85937,28.77246 -28.63769,28.77246 -18.46289,0 -32.47852,-14.01562 -32.47852,-39.62109 0,-25.80762 14.08301,-39.755862 31.73731,-39.755862 14.21777,0 23.85351,8.085938 27.96387,20.956052 h 13.20703 c -3.63868,-19.47363 -20.0127,-32.815427 -41.23828,-32.815427 -25.74024,0 -44.13575,19.743164 -44.13575,51.615237 0,31.7373 18.12598,51.48047 44.94434,51.48047 z m 87.1123,0.26953 c 15.43067,0 26.6836,-7.74903 30.1875,-19.13672 l -11.72461,-3.23438 c -2.83007,7.68164 -9.50097,11.58985 -18.3955,11.58985 -13.3418,0 -22.50586,-8.625 -23.11231,-24.39258 h 54.44531 v -5.05371 c 0,-27.8291 -16.8457,-37.666994 -32.81543,-37.666994 -20.55175,0 -33.89355,16.104494 -33.89355,39.216794 0,23.17969 13.47656,38.67774 35.30859,38.67774 z M 403.2998,131.20117 c 0.74122,-11.52246 8.625,-21.69726 21.5625,-21.69726 12.39844,0 19.33887,8.89453 20.48438,21.69726 z m 97.42188,45.41602 c 20.55176,0 34.43262,-15.56543 34.43262,-38.8125 0,-23.58399 -13.88086,-39.082034 -34.43262,-39.082034 -20.48438,0 -34.29785,15.498044 -34.29785,39.082034 0,23.24707 13.81347,38.8125 34.29785,38.8125 z m 0,-10.84864 c -15.02637,0 -21.9668,-13.13964 -21.9668,-27.96386 0,-15.02637 6.94043,-28.2334 21.9668,-28.2334 15.22852,0 22.16894,13.27441 22.16894,28.2334 0,14.82422 -6.94042,27.96386 -22.16894,27.96386 z"
     id="text21"
     style="font-weight:430;font-size:138px;font-family:Inter, Arial, sans-serif;letter-spacing:-5;fill:#1b6db0"
     aria-label="Geo" />
  <path
     d="m 560.86133,175 h 14.95898 l 17.18262,-63.60937 c 1.9541,-7.27735 3.43652,-14.083013 4.91894,-22.303716 1.54981,8.827148 3.167,15.902346 4.91895,22.303716 L 620.09082,175 h 14.8916 L 662.47461,74.599609 H 649.26758 L 633.43262,136.1875 c -2.15625,8.49023 -4.17774,17.18262 -5.92969,26.48145 -1.88672,-9.29883 -3.9082,-17.99122 -6.13184,-26.48145 L 605.2666,74.599609 H 590.71191 L 574.47266,136.1875 c -2.29102,8.625 -4.24512,17.45215 -6.06446,26.88574 -1.81933,-9.43359 -3.77343,-18.26074 -5.92968,-26.88574 L 546.57617,74.599609 h -13.07226 z m 134.41504,1.61719 c 20.55175,0 34.43261,-15.56543 34.43261,-38.8125 0,-23.58399 -13.88086,-39.082034 -34.43261,-39.082034 -20.48438,0 -34.29785,15.498044 -34.29785,39.082034 0,23.24707 13.81347,38.8125 34.29785,38.8125 z m 0,-10.84864 c -15.02637,0 -21.9668,-13.13964 -21.9668,-27.96386 0,-15.02637 6.94043,-28.2334 21.9668,-28.2334 15.22851,0 22.16894,13.27441 22.16894,28.2334 0,14.82422 -6.94043,27.96386 -22.16894,27.96386 z M 742.36328,175 h 12.12891 v -47.16797 c 0,-10.1748 7.95117,-17.51953 18.7998,-17.51953 3.23438,0 6.53613,0.53906 7.27735,0.67383 V 98.790039 c -1.41504,-0.06738 -4.37989,-0.202148 -6.13184,-0.202148 -8.96191,0 -16.77832,5.053709 -19.54102,12.667969 h -0.80859 V 99.666016 h -11.72461 z m 49.1084,0 h 12.12891 v -27.76172 l 7.95117,-7.47949 L 839.11133,175 h 15.56543 L 820.7832,132.00977 852.31836,99.666016 h -15.02637 l -32.20898,33.219724 h -1.48242 V 74.599609 h -12.12891 z"
     id="text22"
     style="font-weight:430;font-size:138px;font-family:Inter, Arial, sans-serif;letter-spacing:-5;fill:#102650"
     aria-label="Work" />
</svg>
