<?xml version="1.0" encoding="UTF-8" standalone="no"?>
<svg
   width="256"
   height="256"
   viewBox="0 0 256 256"
   version="1.1"
   id="svg21"
   xmlns="http://www.w3.org/2000/svg"
   xmlns:svg="http://www.w3.org/2000/svg">
  <defs
     id="defs9">
    <linearGradient
       id="brandGradient"
       x1="0"
       y1="0"
       x2="1"
       y2="1">
      <stop
         offset="0"
         stop-color="#73DEFF"
         id="stop1" />
      <stop
         offset="0.48"
         stop-color="#25BDF4"
         id="stop2" />
      <stop
         offset="1"
         stop-color="#1B6DB0"
         id="stop3" />
    </linearGradient>
    <linearGradient
       id="wordGradient"
       x1="0"
       y1="0"
       x2="1"
       y2="0">
      <stop
         offset="0"
         stop-color="#25BDF4"
         id="stop4" />
      <stop
         offset="0.45"
         stop-color="#73DEFF"
         id="stop5" />
      <stop
         offset="1"
         stop-color="#BDD3F3"
         id="stop6" />
    </linearGradient>
    <radialGradient
       id="sphereGradient"
       cx="35%"
       cy="30%"
       r="75%">
      <stop
         offset="0"
         stop-color="#73DEFF"
         id="stop7" />
      <stop
         offset="0.45"
         stop-color="#1B6DB0"
         id="stop8" />
      <stop
         offset="1"
         stop-color="#071329"
         id="stop9" />
    </radialGradient>
  </defs>
  <g
     transform="translate(0,0) scale(1)"
     id="g21">
    <g
       fill="none"
       stroke-linecap="round"
       stroke-linejoin="round"
       id="g15">
      <circle
         cx="128"
         cy="128"
         r="91"
         stroke="#102650"
         stroke-width="13"
         id="circle9" />
      <path
         d="M53 188 C83 102 132 48 204 53"
         stroke="#102650"
         stroke-width="12"
         id="path9" />
      <path
         d="M52 58 C105 99 157 157 205 201"
         stroke="#102650"
         stroke-width="12"
         id="path10" />
      <path
         d="M45 136 C86 92 161 82 213 116"
         stroke="#102650"
         stroke-width="10"
         id="path11" />
      <path
         d="M63 174 C108 213 171 207 208 155"
         stroke="#102650"
         stroke-width="10"
         id="path12" />
      <path
         d="M76 40 C45 91 45 164 86 209"
         stroke="#102650"
         stroke-width="9"
         id="path13" />
      <path
         d="M198 49 C176 76 164 98 158 127"
         stroke="#25BDF4"
         stroke-width="13"
         id="path14" />
      <path
         d="M157 127 C181 97 198 76 204 53"
         stroke="#25BDF4"
         stroke-width="13"
         id="path15" />
    </g>
    <g
       id="g20">
      <circle
         cx="52"
         cy="58"
         r="13"
         fill="#17396F"
         id="circle15" />
      <circle
         cx="204"
         cy="53"
         r="13"
         fill="#25BDF4"
         id="circle16" />
      <circle
         cx="53"
         cy="188"
         r="13"
         fill="#17396F"
         id="circle17" />
      <circle
         cx="205"
         cy="201"
         r="13"
         fill="#17396F"
         id="circle18" />
      <circle
         cx="109"
         cy="104"
         r="11"
         fill="#6D88A8"
         id="circle19" />
      <circle
         cx="158"
         cy="127"
         r="11"
         fill="#6D88A8"
         id="circle20" />
    </g>
  </g>
</svg>
