<?xml version="1.0" encoding="UTF-8" standalone="no"?>
<svg
   width="720"
   height="200"
   viewBox="0 0 720 200"
   version="1.1"
   id="svg10"
   xmlns="http://www.w3.org/2000/svg"
   xmlns:svg="http://www.w3.org/2000/svg">
  <defs
     id="defs9">
    <linearGradient
       id="brandGradient"
       x1="0"
       y1="0"
       x2="1"
       y2="1">
      <stop
         offset="0"
         stop-color="#73DEFF"
         id="stop1" />
      <stop
         offset="0.48"
         stop-color="#25BDF4"
         id="stop2" />
      <stop
         offset="1"
         stop-color="#1B6DB0"
         id="stop3" />
    </linearGradient>
    <linearGradient
       id="wordGradient"
       x1="0"
       y1="0"
       x2="1"
       y2="0">
      <stop
         offset="0"
         stop-color="#25BDF4"
         id="stop4" />
      <stop
         offset="0.45"
         stop-color="#73DEFF"
         id="stop5" />
      <stop
         offset="1"
         stop-color="#BDD3F3"
         id="stop6" />
    </linearGradient>
    <radialGradient
       id="sphereGradient"
       cx="35%"
       cy="30%"
       r="75%">
      <stop
         offset="0"
         stop-color="#73DEFF"
         id="stop7" />
      <stop
         offset="0.45"
         stop-color="#1B6DB0"
         id="stop8" />
      <stop
         offset="1"
         stop-color="#071329"
         id="stop9" />
    </radialGradient>
  </defs>
  <path
     d="m 67.861816,156.41602 c 25.134278,0 43.259274,-16.70899 43.259274,-42.90528 V 101.97021 H 70.623047 v 11.75293 h 27.329101 c -0.354003,18.54981 -12.460937,30.23194 -30.090332,30.23194 -19.399414,0 -34.125976,-14.72656 -34.125976,-41.63086 0,-27.1167 14.797363,-41.772462 33.347168,-41.772462 14.938965,0 25.063476,8.496094 29.382324,22.019043 H 110.34229 C 106.51904,62.109375 89.314453,48.09082 67.012207,48.09082 c -27.045898,0 -46.374512,20.744629 -46.374512,54.2334 0,33.34717 19.04541,54.0918 47.224121,54.0918 z m 91.784664,0.2832 c 16.21338,0 28.03711,-8.14209 31.71875,-20.10742 l -12.31933,-3.39844 c -2.97363,8.07129 -9.98291,12.17773 -19.32861,12.17773 -14.01856,0 -23.64747,-9.0625 -24.28467,-25.62988 h 57.20703 v -5.31006 c 0,-29.24072 -17.7002,-39.577634 -34.47998,-39.577634 -21.59424,0 -35.61279,16.921386 -35.61279,41.206054 0,24.35547 14.16015,40.63965 37.0996,40.63965 z m -24.14306,-47.71973 c 0.77881,-12.106931 9.0625,-22.797849 22.65625,-22.797849 13.02734,0 20.31982,9.345703 21.52344,22.797849 z m 102.61719,47.71973 c 21.59423,0 36.17919,-16.35498 36.17919,-40.78125 0,-24.780275 -14.58496,-41.064454 -36.17919,-41.064454 -21.52344,0 -36.0376,16.284179 -36.0376,41.064454 0,24.42627 14.51416,40.78125 36.0376,40.78125 z m 0,-11.39893 c -15.78858,0 -23.08106,-13.80615 -23.08106,-29.38232 0,-15.78858 7.29248,-29.665529 23.08106,-29.665529 16.00097,0 23.29345,13.947759 23.29345,29.665529 0,15.57617 -7.29248,29.38232 -23.29345,29.38232 z"
     id="text9"
     style="font-weight:430;font-size:145px;font-family:Inter, Arial, sans-serif;letter-spacing:-5;fill:#1b6db0"
     aria-label="Geo" />
  <path
     d="m 300.42676,155 h 15.71777 l 18.0542,-66.835938 c 2.05322,-7.646484 3.61084,-14.797363 5.16846,-23.435058 1.62842,9.274902 3.32763,16.708984 5.16845,23.435058 L 362.66064,155 h 15.64698 L 407.19434,49.506836 H 393.31738 L 376.6792,114.21875 c -2.26563,8.9209 -4.38965,18.0542 -6.23047,27.82471 -1.98242,-9.77051 -4.10644,-18.90381 -6.44287,-27.82471 L 347.08447,49.506836 H 331.7915 l -17.06298,64.711914 c -2.40723,9.0625 -4.46045,18.3374 -6.37207,28.24951 -1.91163,-9.91211 -3.96485,-19.18701 -6.23047,-28.24951 L 285.41699,49.506836 h -13.73535 z m 141.48681,1.69922 c 21.59424,0 36.1792,-16.35498 36.1792,-40.78125 0,-24.780275 -14.58496,-41.064454 -36.1792,-41.064454 -21.52343,0 -36.03759,16.284179 -36.03759,41.064454 0,24.42627 14.51416,40.78125 36.03759,40.78125 z m 0,-11.39893 c -15.78857,0 -23.08105,-13.80615 -23.08105,-29.38232 0,-15.78858 7.29248,-29.665529 23.08105,-29.665529 16.00098,0 23.29346,13.947759 23.29346,29.665529 0,15.57617 -7.29248,29.38232 -23.29346,29.38232 z M 491.64258,155 h 12.74414 v -49.56055 c 0,-10.690915 8.35449,-18.4082 19.75342,-18.4082 3.39843,0 6.86767,0.566406 7.64648,0.708008 V 74.924316 c -1.48682,-0.0708 -4.60205,-0.212402 -6.44287,-0.212402 -9.4165,0 -17.62939,5.310059 -20.53223,13.310547 h -0.84961 V 75.844727 h -12.31933 z m 51.85303,0 h 12.74414 v -29.16992 l 8.35449,-7.85889 L 593.55176,155 h 16.35498 l -35.61279,-45.1709 33.13476,-33.984373 h -15.78857 l -33.84278,34.904783 h -1.55761 V 49.506836 h -12.74414 z"
     id="text10"
     style="font-weight:430;font-size:145px;font-family:Inter, Arial, sans-serif;letter-spacing:-5;fill:#102650"
     aria-label="Work" />
</svg>
