<?xml version="1.0" encoding="UTF-8" standalone="no"?>
<svg
   width="760"
   height="650"
   viewBox="0 0 760 650"
   version="1.1"
   id="svg16"
   xmlns="http://www.w3.org/2000/svg"
   xmlns:svg="http://www.w3.org/2000/svg">
  <defs
     id="defs10">
    <linearGradient
       id="brandGradient"
       x1="0"
       y1="0"
       x2="1"
       y2="1">
      <stop
         offset="0"
         stop-color="#73DEFF"
         id="stop1" />
      <stop
         offset="0.48"
         stop-color="#25BDF4"
         id="stop2" />
      <stop
         offset="1"
         stop-color="#1B6DB0"
         id="stop3" />
    </linearGradient>
    <linearGradient
       id="wordGradient"
       x1="0"
       y1="0"
       x2="1"
       y2="0">
      <stop
         offset="0"
         stop-color="#25BDF4"
         id="stop4" />
      <stop
         offset="0.45"
         stop-color="#73DEFF"
         id="stop5" />
      <stop
         offset="1"
         stop-color="#BDD3F3"
         id="stop6" />
    </linearGradient>
    <radialGradient
       id="sphereGradient"
       cx="35%"
       cy="30%"
       r="75%">
      <stop
         offset="0"
         stop-color="#73DEFF"
         id="stop7" />
      <stop
         offset="0.45"
         stop-color="#1B6DB0"
         id="stop8" />
      <stop
         offset="1"
         stop-color="#071329"
         id="stop9" />
    </radialGradient>
    <filter
       id="glow"
       x="-0.064483396"
       y="-0.067137657"
       width="1.1113697"
       height="1.1342753">
      <feGaussianBlur
         stdDeviation="5"
         result="blur"
         id="feGaussianBlur9" />
      <feMerge
         id="feMerge10">
        <feMergeNode
           in="blur"
           id="feMergeNode9" />
        <feMergeNode
           in="SourceGraphic"
           id="feMergeNode10" />
      </feMerge>
    </filter>
  </defs>
  <g
     transform="translate(175,40) scale(1.15)"
     filter="url(#glow)"
     id="g15">
    <circle
       cx="150"
       cy="116"
       r="58"
       fill="url(#sphereGradient)"
       id="circle10" />
    <g
       fill="none"
       stroke="#73DEFF"
       stroke-width="9"
       stroke-linecap="round"
       id="g12">
      <ellipse
         cx="150"
         cy="116"
         rx="128"
         ry="54"
         transform="rotate(16 150 116)"
         id="ellipse10" />
      <ellipse
         cx="150"
         cy="116"
         rx="126"
         ry="52"
         transform="rotate(76 150 116)"
         id="ellipse11" />
      <ellipse
         cx="150"
         cy="116"
         rx="121"
         ry="49"
         transform="rotate(136 150 116)"
         id="ellipse12" />
    </g>
    <g
       fill="#25BDF4"
       id="g14">
      <path
         d="M260 85 l22 9 -18 15 z"
         id="path12" />
      <path
         d="M75 208 l-4 24 22-12 z"
         id="path13" />
      <path
         d="M140 1 l17 18 -23 5 z"
         id="path14" />
    </g>
  </g>
  <path
     d="m 140.78809,576.46484 c 26.00097,0 44.75097,-17.28515 44.75097,-44.38476 V 520.1416 h -41.89453 v 12.1582 h 28.27149 c -0.36622,19.18946 -12.89063,31.27442 -31.12793,31.27442 -20.06836,0 -35.30274,-15.23438 -35.30274,-43.06641 0,-28.05176 15.30762,-43.21289 34.49707,-43.21289 15.4541,0 25.92774,8.78906 30.39551,22.77832 h 14.35547 c -3.95508,-21.16699 -21.75293,-35.66894 -44.82422,-35.66894 -27.97852,0 -47.973633,21.45996 -47.973633,56.10351 0,34.49707 19.702153,55.95703 48.852543,55.95703 z m 95.12207,0.29297 c 16.77246,0 29.0039,-8.42285 32.8125,-20.80078 l -12.74414,-3.51562 c -3.07618,8.34961 -10.32715,12.59765 -19.99512,12.59765 -14.50195,0 -24.46289,-9.375 -25.12207,-26.51367 h 59.17969 v -5.49316 c 0,-30.24903 -18.31055,-40.94239 -35.66895,-40.94239 -22.33887,0 -36.84082,17.50489 -36.84082,42.62696 0,25.19531 14.64844,42.04101 38.37891,42.04101 z m -24.97559,-49.36523 c 0.80566,-12.52442 9.375,-23.58399 23.4375,-23.58399 13.47656,0 21.02051,9.66797 22.26563,23.58399 z m 106.32813,49.36523 c 22.33886,0 37.42675,-16.91894 37.42675,-42.1875 0,-25.63476 -15.08789,-42.48047 -37.42675,-42.48047 -22.26563,0 -37.28028,16.84571 -37.28028,42.48047 0,25.26856 15.01465,42.1875 37.28028,42.1875 z m 0,-11.79199 c -16.33301,0 -23.87696,-14.28223 -23.87696,-30.39551 0,-16.33301 7.54395,-30.68847 23.87696,-30.68847 16.55273,0 24.09667,14.42871 24.09667,30.68847 0,16.11328 -7.54394,30.39551 -24.09667,30.39551 z"
     id="text15"
     style="font-weight:430;font-size:150px;font-family:Inter, Arial, sans-serif;letter-spacing:-5;fill:#25bdf4"
     aria-label="Geo" />
  <path
     d="m 380.54492,575 h 16.25977 l 18.67676,-69.14063 c 2.12402,-7.91015 3.73535,-15.30761 5.34667,-24.24316 1.68458,9.59473 3.44239,17.28516 5.34668,24.24316 L 444.9248,575 h 16.18653 l 29.88281,-109.13086 h -14.35547 l -17.21191,66.94336 c -2.34375,9.22852 -4.54102,18.67676 -6.44531,28.78418 -2.05079,-10.10742 -4.24805,-19.55566 -6.66504,-28.78418 l -17.50489,-66.94336 h -15.82031 l -17.65137,66.94336 c -2.49023,9.375 -4.61425,18.96973 -6.59179,29.22363 -1.97754,-10.2539 -4.10157,-19.84863 -6.44532,-29.22363 l -17.28515,-66.94336 h -14.20899 z m 146.53809,1.75781 c 22.33886,0 37.42676,-16.91894 37.42676,-42.1875 0,-25.63476 -15.0879,-42.48047 -37.42676,-42.48047 -22.26563,0 -37.28028,16.84571 -37.28028,42.48047 0,25.26856 15.01465,42.1875 37.28028,42.1875 z m 0,-11.79199 c -16.33301,0 -23.87696,-14.28223 -23.87696,-30.39551 0,-16.33301 7.54395,-30.68847 23.87696,-30.68847 16.55273,0 24.09668,14.42871 24.09668,30.68847 0,16.11328 -7.54395,30.39551 -24.09668,30.39551 z M 578.69922,575 h 13.18359 v -51.26953 c 0,-11.05957 8.64258,-19.04297 20.43457,-19.04297 3.51563,0 7.10449,0.58594 7.91016,0.73242 v -13.25683 c -1.53809,-0.0733 -4.76074,-0.21973 -6.66504,-0.21973 -9.74121,0 -18.2373,5.49316 -21.24023,13.76953 h -0.87891 v -12.59766 h -12.74414 z m 53.81348,0 h 13.18359 v -30.17578 l 8.64258,-8.12988 L 684.29492,575 h 16.91895 l -36.84082,-46.72852 34.27734,-35.15625 h -16.33301 l -35.00976,36.1084 h -1.61133 V 465.86914 H 632.5127 Z"
     id="text16"
     style="font-weight:430;font-size:150px;font-family:Inter, Arial, sans-serif;letter-spacing:-5;fill:#bdd3f3"
     aria-label="Work" />
</svg>
